<svg width="42" height="42" viewBox="0 0 42 42" fill="none" xmlns="http://www.w3.org/2000/svg">
<path opacity="0.4" d="M37.6075 21.0002C38.1675 19.2152 38.5 17.2902 38.5 15.2077C38.5 9.80021 34.1425 5.42517 28.77 5.42517C25.585 5.42517 22.7675 6.96526 21 9.34526C19.2325 6.96526 16.3975 5.42517 13.23 5.42517C7.8575 5.42517 3.5 9.80021 3.5 15.2077C3.5 27.4577 14.84 34.6852 19.915 36.4352C20.2125 36.5402 20.5975 36.5927 21 36.5927" stroke="#003399" stroke-width="3" stroke-linecap="round" stroke-linejoin="round"/>
<path d="M31.0435 36.7502C34.1363 36.7502 36.6435 34.2429 36.6435 31.1502C36.6435 28.0574 34.1363 25.5502 31.0435 25.5502C27.9505 25.5502 25.4435 28.0574 25.4435 31.1502C25.4435 34.2429 27.9505 36.7502 31.0435 36.7502Z" stroke="#003399" stroke-width="3" stroke-linecap="round" stroke-linejoin="round"/>
<path d="M37.6935 37.8002L35.9435 36.0502" stroke="#003399" stroke-width="3" stroke-linecap="round" stroke-linejoin="round"/>
</svg>
