<svg width="42" height="42" viewBox="0 0 42 42" fill="none" xmlns="http://www.w3.org/2000/svg">
<path d="M30.1007 38.4998C34.7398 38.4998 38.5007 34.7391 38.5007 30.0998C38.5007 25.4606 34.7398 21.6998 30.1007 21.6998C25.4614 21.6998 21.7007 25.4606 21.7007 30.0998C21.7007 34.7391 25.4614 38.4998 30.1007 38.4998Z" stroke="#003399" stroke-width="3" stroke-miterlimit="10" stroke-linecap="round" stroke-linejoin="round"/>
<path d="M33.2329 30.2047H26.9679" stroke="#003399" stroke-width="3" stroke-miterlimit="10" stroke-linecap="round" stroke-linejoin="round"/>
<path d="M30.0986 27.1422V33.4245" stroke="#003399" stroke-width="3" stroke-miterlimit="10" stroke-linecap="round" stroke-linejoin="round"/>
<path opacity="0.4" d="M38.5 15.2077C38.5 18.6552 37.6075 21.7002 36.2075 24.3427C34.6675 22.7152 32.4975 21.7002 30.1 21.7002C25.4625 21.7002 21.7 25.4627 21.7 30.1002C21.7 32.2527 22.5225 34.2127 23.8525 35.7002C23.205 35.9977 22.61 36.2427 22.085 36.4177C21.49 36.6277 20.51 36.6277 19.915 36.4177C14.84 34.6852 3.5 27.4577 3.5 15.2077C3.5 9.80021 7.8575 5.42517 13.23 5.42517C16.3975 5.42517 19.2325 6.96524 21 9.32774C22.7675 6.96524 25.6025 5.42517 28.77 5.42517C34.1425 5.42517 38.5 9.80021 38.5 15.2077Z" stroke="#003399" stroke-width="3" stroke-linecap="round" stroke-linejoin="round"/>
</svg>
